<svg
width="40"
height="40"
viewBox="0 0 40 40"
fill="none"
xmlns="http://www.w3.org/2000/svg"
>
<path
fill-rule="evenodd"
clip-rule="evenodd"
d="M20 0C8.95431 0 0 8.95431 0 20C0 31.0457 8.95431 40 20 40C31.0457 40 40 31.0457 40 20C40 8.95431 31.0457 0 20 0ZM2.82051 20C2.82051 10.512 10.512 2.82051 20 2.82051C29.488 2.82051 37.1795 10.512 37.1795 20C37.1795 29.488 29.488 37.1795 20 37.1795C10.512 37.1795 2.82051 29.488 2.82051 20ZM29.3305 13.2336C28.7798 12.6828 27.8869 12.6828 27.3361 13.2336L17.1575 23.4122C17.0613 23.5084 16.9309 23.5624 16.7949 23.5624C16.6589 23.5624 16.5284 23.5084 16.4323 23.4122L12.6639 19.6438C12.1131 19.0931 11.2202 19.0931 10.6695 19.6438C10.1187 20.1946 10.1187 21.0875 10.6695 21.6382L15.7977 26.7664C16.3484 27.3172 17.2413 27.3172 17.7921 26.7664L29.3305 15.228C29.8813 14.6772 29.8813 13.7843 29.3305 13.2336Z"
fill="#00A857"
/>
 </svg>