<svg width="0" height="0"><symbol xmlns="http://www.w3.org/2000/svg" id="bold" fill="none" stroke="currentColor" stroke-linecap="round" stroke-linejoin="round" stroke-width="2" viewBox="0 0 24 24"><path d="M6 12h9a4 4 0 0 1 0 8H7a1 1 0 0 1-1-1V5a1 1 0 0 1 1-1h7a4 4 0 0 1 0 8"/></symbol><symbol xmlns="http://www.w3.org/2000/svg" id="heading" fill="none" stroke="currentColor" stroke-linecap="round" stroke-linejoin="round" stroke-width="2" viewBox="0 0 24 24"><path d="M6 12h12M6 20V4m12 16V4"/></symbol><symbol xmlns="http://www.w3.org/2000/svg" id="italic" fill="none" stroke="currentColor" stroke-linecap="round" stroke-linejoin="round" stroke-width="2" viewBox="0 0 24 24"><path d="M19 4h-9m4 16H5M15 4 9 20"/></symbol><symbol xmlns="http://www.w3.org/2000/svg" id="link" fill="none" stroke="currentColor" stroke-linecap="round" stroke-linejoin="round" stroke-width="2" viewBox="0 0 24 24"><path d="M10 13a5 5 0 0 0 7.54.54l3-3a5 5 0 0 0-7.07-7.07l-1.72 1.71"/><path d="M14 11a5 5 0 0 0-7.54-.54l-3 3a5 5 0 0 0 7.07 7.07l1.71-1.71"/></symbol><symbol xmlns="http://www.w3.org/2000/svg" id="list" fill="none" stroke="currentColor" stroke-linecap="round" stroke-linejoin="round" stroke-width="2" viewBox="0 0 24 24"><path d="M3 12h.01M3 18h.01M3 6h.01M8 12h13M8 18h13M8 6h13"/></symbol><symbol xmlns="http://www.w3.org/2000/svg" id="palette" fill="none" stroke="currentColor" stroke-linecap="round" stroke-linejoin="round" stroke-width="2" viewBox="0 0 24 24"><circle cx="13.5" cy="6.5" r=".5" fill="currentColor"/><circle cx="17.5" cy="10.5" r=".5" fill="currentColor"/><circle cx="8.5" cy="7.5" r=".5" fill="currentColor"/><circle cx="6.5" cy="12.5" r=".5" fill="currentColor"/><path d="M12 2C6.5 2 2 6.5 2 12s4.5 10 10 10c.926 0 1.648-.746 1.648-1.688 0-.437-.18-.835-.437-1.125-.29-.289-.438-.652-.438-1.125a1.64 1.64 0 0 1 1.668-1.668h1.996c3.051 0 5.555-2.503 5.555-5.554C21.965 6.012 17.461 2 12 2z"/></symbol><symbol xmlns="http://www.w3.org/2000/svg" id="redo" fill="none" stroke="currentColor" stroke-linecap="round" stroke-linejoin="round" stroke-width="2" viewBox="0 0 24 24"><path d="M21 7v6h-6"/><path d="M3 17a9 9 0 0 1 9-9 9 9 0 0 1 6 2.3l3 2.7"/></symbol><symbol xmlns="http://www.w3.org/2000/svg" id="removeFormatting" fill="none" stroke="currentColor" stroke-linecap="round" stroke-linejoin="round" stroke-width="2" viewBox="0 0 24 24"><path d="M4 7V4h16v3M5 20h6m2-16L8 20m7-5 5 5m0-5-5 5"/></symbol><symbol xmlns="http://www.w3.org/2000/svg" id="space" fill="none" stroke="currentColor" stroke-linecap="round" stroke-linejoin="round" stroke-width="2" viewBox="0 0 24 24"><path d="M22 17v1c0 .5-.5 1-1 1H3c-.5 0-1-.5-1-1v-1"/></symbol><symbol xmlns="http://www.w3.org/2000/svg" id="strikethrough" fill="none" stroke="currentColor" stroke-linecap="round" stroke-linejoin="round" stroke-width="2" viewBox="0 0 24 24"><path d="M16 4H9a3 3 0 0 0-2.83 4M14 12a4 4 0 0 1 0 8H6m-2-8h16"/></symbol><symbol xmlns="http://www.w3.org/2000/svg" id="typography" fill="none" stroke="currentColor" stroke-linecap="round" stroke-linejoin="round" stroke-width="2" viewBox="0 0 24 24"><path d="M4 7V4h16v3M9 20h6M12 4v16"/></symbol><symbol xmlns="http://www.w3.org/2000/svg" id="underline" fill="none" stroke="currentColor" stroke-linecap="round" stroke-linejoin="round" stroke-width="2" viewBox="0 0 24 24"><path d="M6 4v6a6 6 0 0 0 12 0V4M4 20h16"/></symbol><symbol xmlns="http://www.w3.org/2000/svg" id="undo" fill="none" stroke="currentColor" stroke-linecap="round" stroke-linejoin="round" stroke-width="2" viewBox="0 0 24 24"><path d="M3 7v6h6"/><path d="M21 17a9 9 0 0 0-9-9 9 9 0 0 0-6 2.3L3 13"/></symbol></svg>