<svg width="32" height="32" viewBox="0 0 32 32" fill="none" xmlns="http://www.w3.org/2000/svg">
    <rect width="32" height="32" rx="16" fill="white"/>
    <g clip-path="url(#clip0_6481_546)">
        <path d="M15.9981 30.6632C24.0958 30.6632 30.6603 24.0975 30.6603 15.9982C30.6603 7.899 24.0958 1.33325 15.9981 1.33325C7.90034 1.33325 1.33582 7.899 1.33582 15.9982C1.33582 24.0975 7.90034 30.6632 15.9981 30.6632Z" fill="#FFC800"/>
        <path d="M22.3078 26.9244C17.3284 29.7983 11.9282 30.3133 8.47876 28.5918C12.8951 31.2238 18.5654 31.4514 23.3315 28.7C28.0976 25.9456 30.7366 20.9208 30.6655 15.7792C30.4323 19.6289 27.2872 24.0507 22.3078 26.9244Z" fill="#292929"/>
        <path d="M17.8575 2.40886C18.867 4.15591 16.4271 7.45652 12.406 9.77548C8.38502 12.0944 4.30995 12.5611 3.30042 10.8112C3.25777 10.7287 3.21796 10.6376 3.18952 10.5438C2.9279 9.72998 3.24071 8.67718 3.9943 7.5675C4.11658 7.39394 4.2417 7.22322 4.36967 7.05534C5.50716 5.57289 6.94892 4.28679 8.66655 3.29661C10.3841 2.30358 12.2184 1.70036 14.0696 1.45566C14.2857 1.42436 14.4962 1.4016 14.7009 1.38738C16.0375 1.28779 17.1039 1.54387 17.6783 2.17554C17.7466 2.25236 17.8063 2.32919 17.8575 2.40886Z" fill="#292929"/>
        <path d="M24.091 4.3011C25.8541 7.35416 22.2966 12.7063 16.1484 16.2573C10.0003 19.8083 3.58486 20.2123 1.8246 17.1593C1.53169 16.65 1.37529 16.0837 1.34401 15.4748C1.26723 17.5263 1.61985 19.612 2.44169 21.5923C2.56397 21.8883 2.69762 22.1813 2.83981 22.4716C2.8455 22.4829 2.85403 22.4972 2.85972 22.5085C3.39149 23.4276 4.17636 24.1503 5.1546 24.6739C8.60404 26.5205 14.4365 25.886 19.8908 22.7362C25.3422 19.5864 28.8087 14.8545 28.9367 10.945C28.9737 9.84101 28.7433 8.80245 28.2172 7.8834C28.0182 7.58466 27.8106 7.29158 27.5916 7.01272C26.2977 5.33965 24.6882 4.00803 22.8994 3.05768C23.3971 3.38489 23.8009 3.79747 24.091 4.3011C24.091 4.3011 24.0938 4.30394 24.0938 4.30679L24.091 4.3011Z" fill="#292929"/>
        <path d="M16.0009 30.6632C24.0986 30.6632 30.6631 24.0975 30.6631 15.9982C30.6631 7.899 24.0986 1.33325 16.0009 1.33325C7.90315 1.33325 1.33862 7.899 1.33862 15.9982C1.33862 24.0975 7.90315 30.6632 16.0009 30.6632Z" fill="url(#paint0_radial_6481_546)"/>
    </g>
    <defs>
        <radialGradient id="paint0_radial_6481_546" cx="0" cy="0" r="1" gradientUnits="userSpaceOnUse" gradientTransform="translate(15.9995 15.9995) scale(14.6619 14.6703)">
            <stop offset="0.5" stop-color="white" stop-opacity="0"/>
            <stop offset="1" stop-color="white" stop-opacity="0.35"/>
        </radialGradient>
        <clipPath id="clip0_6481_546">
            <rect width="29.3333" height="29.3333" fill="white" transform="translate(1.33374 1.33331)"/>
        </clipPath>
    </defs>
</svg>
