<svg width="32" height="32" viewBox="0 0 32 32" fill="none" xmlns="http://www.w3.org/2000/svg">
    <g clip-path="url(#clip0_6481_537)">
        <rect width="32" height="32" rx="16" fill="white"/>
        <g clip-path="url(#clip1_6481_537)">
            <path d="M17.9762 1.05566V16.5288C17.9762 17.2523 17.4197 17.7533 16.7518 17.7533H14.915C14.8037 17.7533 14.748 17.8646 14.748 17.9202V30.8887C15.1933 30.8887 15.6386 31 16.1395 31C24.4326 31 31.1673 24.2653 31.1673 15.9722C31.1673 8.34694 25.4345 1.9462 17.9762 1.05566ZM17.6423 24.2097C16.5848 24.2097 15.8056 23.3191 15.8056 22.3729C15.8056 21.3154 16.6961 20.5362 17.6423 20.5362C18.6998 20.5362 19.479 21.4267 19.479 22.3729C19.5903 23.3748 18.6998 24.2097 17.6423 24.2097ZM22.0393 24.2097C20.9818 24.2097 20.2026 23.3191 20.2026 22.3729C20.2026 21.3154 21.0931 20.5362 22.0393 20.5362C23.0968 20.5362 23.8761 21.4267 23.8761 22.3729C23.8761 23.3191 23.1525 24.2097 22.0393 24.2097ZM26.492 24.2097C25.4345 24.2097 24.6553 23.3191 24.6553 22.3729C24.6553 21.3154 25.5458 20.5362 26.492 20.5362C27.5495 20.5362 28.3288 21.4267 28.3288 22.3729C28.3288 23.3191 27.5495 24.2097 26.492 24.2097Z" fill="#00B956"/>
            <path d="M16.1394 1C7.84627 1 1.11157 7.73469 1.11157 16.0278C1.11157 23.3191 6.17651 29.2746 12.9669 30.666V17.141C12.9669 16.5288 13.5234 16.0278 14.08 15.9165H14.6923H15.9168C16.0281 15.9165 16.0837 15.8052 16.0837 15.7495L16.1394 1ZM13.2452 13.3562C12.1876 13.3562 11.4084 12.4657 11.4084 11.5195C11.4084 10.462 12.299 9.68275 13.2452 9.68275C14.3027 9.68275 15.0819 10.5733 15.0819 11.5195C15.0819 12.4657 14.247 13.3562 13.2452 13.3562Z" fill="#00B956"/>
        </g>
    </g>
    <defs>
        <clipPath id="clip0_6481_537">
            <rect width="32" height="32" rx="16" fill="white"/>
        </clipPath>
        <clipPath id="clip1_6481_537">
            <rect x="1.33325" y="1.33331" width="29.3333" height="29.3333" rx="14.6667" fill="white"/>
        </clipPath>
    </defs>
</svg>
