<svg width="32" height="32" viewBox="0 0 32 32" fill="none" xmlns="http://www.w3.org/2000/svg">
    <g clip-path="url(#clip0_6481_524)">
        <rect width="32" height="32" rx="16" fill="white"/>
        <rect x="1.33325" y="1.33331" width="29.3333" height="29.3333" rx="14.6667" fill="#FF0032"/>
        <mask id="mask0_6481_524" style="mask-type:luminance" maskUnits="userSpaceOnUse" x="5" y="5" width="22" height="22">
            <path d="M26.6865 5.98035H5.98059V26.6862H26.6865V5.98035Z" fill="white"/>
        </mask>
        <g mask="url(#mask0_6481_524)">
            <path d="M26.0788 6.00006H6.00037V26.0785H26.0788V6.00006Z" fill="#FF0032"/>
            <path d="M19.7745 7.57281V8.52574H21.8583V12.3501H23.023V8.52574H25.1024V7.57281H19.7745Z" fill="white"/>
            <path d="M12.2828 7.57281L10.7581 10.7323L9.23767 7.57281H7.57324V12.3501H8.74216V8.93232L10.2287 11.8207H11.2917L12.7783 8.93232V12.3501H13.943V7.57281H12.2828Z" fill="white"/>
            <path d="M23.9375 23.5014C23.9079 23.692 23.8316 23.8487 23.7088 23.9672C23.5945 24.0774 23.4378 24.1578 23.2429 24.2044C23.0524 24.2468 22.7686 24.2722 22.4722 24.2722C22.163 24.2722 21.8919 24.2341 21.659 24.1536C21.4345 24.0774 21.2566 23.9418 21.1338 23.7555C21.0068 23.5691 20.9432 23.2981 20.9432 22.9466V22.4595C20.9432 22.1122 21.0068 21.8412 21.1338 21.6506C21.2609 21.4642 21.4345 21.3288 21.659 21.2525C21.8877 21.172 22.163 21.1339 22.4722 21.1339C22.7686 21.1339 23.0524 21.1593 23.2429 21.2017C23.4378 21.2483 23.5945 21.3245 23.7088 21.4388C23.8316 21.5574 23.9079 21.7141 23.9375 21.9047H25.1022C25.0683 21.5108 24.9371 21.1763 24.7041 20.9052C24.4924 20.6596 24.1959 20.4817 23.8274 20.3716C23.4716 20.2657 23.0015 20.2106 22.4722 20.2106C21.9131 20.2106 21.4303 20.2911 21.0322 20.4478C20.6299 20.6087 20.3164 20.8756 20.1004 21.244C19.8929 21.5955 19.787 22.0699 19.7786 22.6459V22.7009L19.8421 22.7052L19.7786 22.7094V22.7136V22.7645C19.787 23.3405 19.8929 23.8148 20.1004 24.1663C20.3164 24.5348 20.6299 24.8016 21.0322 24.9625C21.4303 25.1192 21.9131 25.1997 22.4722 25.1997C23.0015 25.1997 23.4716 25.1447 23.8274 25.0388C24.1959 24.9287 24.4881 24.7508 24.7041 24.5051C24.9371 24.2383 25.0725 23.8995 25.1022 23.5056H23.9375V23.5014Z" fill="white"/>
        </g>
    </g>
    <defs>
        <clipPath id="clip0_6481_524">
            <rect width="32" height="32" rx="16" fill="white"/>
        </clipPath>
    </defs>
</svg>
