<svg width="24" height="24" viewBox="0 0 24 24" fill="none" xmlns="http://www.w3.org/2000/svg">
    <path d="M18.769 12.9287C18.5702 12.9287 18.3625 12.8653 18.1638 12.82C17.7614 12.731 17.3659 12.613 16.9805 12.4667C16.5615 12.3138 16.1009 12.3217 15.6874 12.489C15.2738 12.6562 14.9366 12.9709 14.7405 13.3725L14.5418 13.7802C13.662 13.2894 12.8536 12.6798 12.1392 11.9684C11.4299 11.2519 10.8221 10.4411 10.3327 9.55881L10.712 9.30517C11.1125 9.10852 11.4263 8.77028 11.5931 8.35553C11.7598 7.94079 11.7677 7.47885 11.6153 7.0586C11.4719 6.67127 11.3542 6.27484 11.263 5.87191C11.2179 5.67261 11.1817 5.46426 11.1546 5.25591C11.0449 4.61783 10.7117 4.04 10.2149 3.62646C9.71813 3.21293 9.09044 2.99087 8.4449 3.00029H5.73517C5.3459 2.99662 4.96041 3.07712 4.60495 3.2363C4.24949 3.39547 3.9324 3.62959 3.67526 3.92272C3.41813 4.21585 3.22699 4.5611 3.11485 4.93497C3.00272 5.30885 2.97222 5.70256 3.02544 6.08932C3.50663 9.88437 5.2348 13.4105 7.93696 16.1107C10.6391 18.8109 14.1613 20.5312 17.947 21H18.2902C18.9563 21.001 19.5994 20.7559 20.0967 20.3115C20.3825 20.0552 20.6108 19.741 20.7665 19.3896C20.9222 19.0383 21.0017 18.6578 21 18.2733V15.5557C20.9889 14.9265 20.7604 14.3206 20.3536 13.8415C19.9467 13.3624 19.3866 13.0397 18.769 12.9287ZM19.2206 18.3639C19.2204 18.4925 19.1929 18.6196 19.14 18.7368C19.087 18.8539 19.0098 18.9584 18.9135 19.0433C18.8126 19.1307 18.6945 19.196 18.567 19.235C18.4395 19.274 18.3052 19.2858 18.1728 19.2698C14.7901 18.8348 11.648 17.2827 9.2422 14.8584C6.8364 12.4341 5.30379 9.27558 4.88612 5.88097C4.87175 5.74827 4.88434 5.61403 4.92316 5.48636C4.96197 5.35869 5.02619 5.24023 5.11193 5.13815C5.19658 5.04152 5.30077 4.96408 5.41757 4.91097C5.53438 4.85787 5.66112 4.83032 5.78936 4.83015H8.49909C8.70914 4.82546 8.91424 4.89436 9.0791 5.02498C9.24396 5.1556 9.35827 5.33977 9.40233 5.54579C9.43846 5.7934 9.48363 6.03798 9.53782 6.27955C9.64216 6.75708 9.78103 7.22635 9.95331 7.68365L8.68877 8.27247C8.58065 8.32222 8.4834 8.3929 8.40259 8.48046C8.32178 8.56801 8.25901 8.67071 8.21789 8.78266C8.17676 8.8946 8.15809 9.0136 8.16295 9.1328C8.1678 9.252 8.19609 9.36907 8.24618 9.47728C9.54613 12.2699 11.7844 14.5147 14.5689 15.8184C14.7888 15.909 15.0354 15.909 15.2553 15.8184C15.368 15.778 15.4715 15.7155 15.5599 15.6347C15.6483 15.5538 15.7198 15.4561 15.7702 15.3473L16.3302 14.0791C16.7972 14.2466 17.2737 14.3857 17.7573 14.4958C17.9982 14.5502 18.2421 14.5955 18.489 14.6317C18.6944 14.6759 18.878 14.7905 19.0083 14.9559C19.1385 15.1212 19.2072 15.3269 19.2025 15.5376L19.2206 18.3639Z" fill="currentColor"/>
</svg>
