<svg width="24" height="24" viewBox="0 0 24 24" fill="none" xmlns="http://www.w3.org/2000/svg">
    <path d="M2 5.75C2 5.05964 2.55964 4.5 3.25 4.5H20.75C21.4404 4.5 22 5.05964 22 5.75C22 6.44036 21.4404 7 20.75 7H3.25C2.55964 7 2 6.44036 2 5.75ZM2 12C2 11.3096 2.55964 10.75 3.25 10.75H20.75C21.4404 10.75 22 11.3096 22 12C22 12.6904 21.4404 13.25 20.75 13.25H3.25C2.55964 13.25 2 12.6904 2 12ZM2 18.25C2 17.5596 2.55964 17 3.25 17H20.75C21.4404 17 22 17.5596 22 18.25C22 18.9404 21.4404 19.5 20.75 19.5H3.25C2.55964 19.5 2 18.9404 2 18.25Z"
          fill="#292929"/>
</svg>
