<svg width="25" height="24" viewBox="0 0 25 24" fill="none" xmlns="http://www.w3.org/2000/svg">
    <path d="M12.1226 2.03412C11.2436 2.40912 5.96955 4.66013 5.09155 5.03513C4.72255 5.19213 4.49756 5.54013 4.49756 5.94113C4.49756 10.3211 4.67255 12.2811 5.46655 14.5381C6.50555 17.4931 8.54556 19.8481 11.9976 21.8211C12.3046 21.9971 12.6906 21.9971 12.9976 21.8211C16.4806 19.8301 18.5296 17.4831 19.5596 14.5381C20.3436 12.2971 20.4976 10.4331 20.4976 5.94113C20.4976 5.54214 20.2706 5.19313 19.9036 5.03513L12.9355 2.03412C12.6835 1.92613 12.3746 1.92613 12.1226 2.03412ZM12.4976 4.00312L18.4936 6.60614C18.5806 13.7811 17.1746 16.9261 12.5066 19.7871C7.71756 16.8081 6.44557 13.6291 6.49457 6.61414C7.85757 6.03214 11.3446 4.49512 12.4976 4.00312Z" fill="#69809A"/>
    <path d="M6.49457 6.61414C6.44557 13.6291 7.71756 16.8081 12.5066 19.7871L12.4976 4.00312C11.3446 4.49512 7.85757 6.03214 6.49457 6.61414Z" fill="#69809A"/>
</svg>
