<svg width="0" height="0"><symbol xmlns="http://www.w3.org/2000/svg" id="arrowCircle" fill="none" viewBox="0 0 32 32"><rect width="31" height="31" x=".5" y="31.5" stroke="currentColor" rx="15.5" transform="rotate(-90 .5 31.5)"/><path fill="currentColor" stroke="currentColor" d="M22.707 18.707a1 1 0 0 1-1.414 0L16 13.414l-5.293 5.293a1 1 0 0 1-1.414-1.414l6-6a1 1 0 0 1 1.414 0l6 6a1 1 0 0 1 0 1.414Z"/></symbol><symbol xmlns="http://www.w3.org/2000/svg" id="arrowDownRight" fill="currentColor" viewBox="0 0 24 24"><path fill-rule="evenodd" d="M3.2 3.6a1 1 0 0 1 1-1h6.286a5 5 0 0 1 5 5v10.386l3.607-3.607a1 1 0 0 1 1.414 1.414l-5.314 5.314a1 1 0 0 1-1.414 0l-5.314-5.314a1 1 0 1 1 1.414-1.414l3.607 3.607V7.6a3 3 0 0 0-3-3H4.2a1 1 0 0 1-1-1Z" clip-rule="evenodd"/></symbol><symbol xmlns="http://www.w3.org/2000/svg" id="arrowLink" fill="none" viewBox="0 0 24 24"><path fill="currentColor" d="M8 7a1 1 0 0 1 1-1h8a1 1 0 0 1 1 1v8a1 1 0 1 1-2 0V9.414l-8.293 8.293a1 1 0 0 1-1.414-1.414L14.586 8H9a1 1 0 0 1-1-1Z"/></symbol><symbol xmlns="http://www.w3.org/2000/svg" id="arrowRight" fill="none" viewBox="0 0 16 17"><path fill="currentColor" d="M6.195 13.157a.667.667 0 0 1 0-.943l3.529-3.528-3.529-3.529a.667.667 0 1 1 .943-.943l4 4c.26.26.26.683 0 .943l-4 4a.667.667 0 0 1-.943 0Z"/></symbol><symbol xmlns="http://www.w3.org/2000/svg" id="arrowRotate" fill="none" viewBox="0 0 18 18"><path fill="currentColor" fill-rule="evenodd" d="M3.696 5h1.183a1 1 0 0 1 0 2H1a1 1 0 0 1-1-1V2a1 1 0 0 1 2 0v1.939C3.57 1.57 6.222 0 9.242 0 14.108 0 18 4.059 18 9s-3.892 9-8.758 9C5.34 18 2.06 15.384.918 11.804a1 1 0 0 1 1.906-.608C3.719 14.004 6.269 16 9.242 16 12.946 16 16 12.895 16 9s-3.054-7-6.758-7C6.956 2 4.923 3.178 3.696 5Z" clip-rule="evenodd"/></symbol><symbol xmlns="http://www.w3.org/2000/svg" id="arrowScroll" fill="none" viewBox="0 0 14 16"><path fill="currentColor" d="M7 0a1 1 0 0 1 .707.293l6 6a1 1 0 0 1-1.414 1.414L8 3.414V15a1 1 0 1 1-2 0V3.414L1.707 7.707A1 1 0 0 1 .293 6.293l6-6A1 1 0 0 1 7 0Z"/></symbol></svg>