<svg width="0" height="0"><symbol xmlns="http://www.w3.org/2000/svg" id="phone" fill="none" viewBox="0 0 24 24"><path fill="currentColor" d="M18.769 12.929c-.199 0-.406-.064-.605-.109a8.516 8.516 0 0 1-1.184-.353 1.801 1.801 0 0 0-2.24.905l-.198.408c-.88-.49-1.688-1.1-2.403-1.812a11.03 11.03 0 0 1-1.806-2.41l.379-.253a1.81 1.81 0 0 0 .903-2.246 9.386 9.386 0 0 1-.352-1.187 6.761 6.761 0 0 1-.108-.616 2.72 2.72 0 0 0-.94-1.63A2.705 2.705 0 0 0 8.445 3h-2.71a2.703 2.703 0 0 0-2.06.923 2.72 2.72 0 0 0-.65 2.166 17.231 17.231 0 0 0 4.912 10.022A17.142 17.142 0 0 0 17.947 21h.343A2.705 2.705 0 0 0 21 18.273v-2.717a2.723 2.723 0 0 0-.646-1.714 2.708 2.708 0 0 0-1.585-.913Zm.452 5.435a.91.91 0 0 1-.654.871.956.956 0 0 1-.394.035 15.338 15.338 0 0 1-8.93-4.412 15.417 15.417 0 0 1-4.357-8.977.99.99 0 0 1 .226-.743.904.904 0 0 1 .677-.308H8.5a.902.902 0 0 1 .903.716c.036.247.082.492.136.734.104.477.243.946.415 1.404l-1.264.588a.903.903 0 0 0-.526.86.91.91 0 0 0 .083.345 13.107 13.107 0 0 0 6.323 6.341.9.9 0 0 0 .686 0 .903.903 0 0 0 .515-.47l.56-1.269c.467.168.944.307 1.427.417.241.054.485.1.732.136a.903.903 0 0 1 .713.906l.019 2.826Z"/></symbol></svg>