<svg width="0" height="0"><symbol xmlns="http://www.w3.org/2000/svg" id="border" fill="none" viewBox="0 0 476 64"><mask id="a" fill="currentColor"><path d="M0 4a4 4 0 0 1 4-4h468a4 4 0 0 1 4 4v56a4 4 0 0 1-4 4H4a4 4 0 0 1-4-4V4Z"/></mask><path fill="currentColor" d="M4 63.5A3.5 3.5 0 0 1 .5 60h-1A4.5 4.5 0 0 0 4 64.5v-1ZM.5 60v-7h-1v7h1Zm0-21V25h-1v14h1Zm0-28V4h-1v7h1Zm0-7A3.5 3.5 0 0 1 4 .5v-1A4.5 4.5 0 0 0-.5 4h1ZM4 .5h5.85v-1H4v1Zm17.55 0h11.7v-1h-11.7v1Zm23.4 0h11.7v-1h-11.7v1Zm23.4 0h11.7v-1h-11.7v1Zm23.4 0h11.7v-1h-11.7v1Zm23.4 0h11.7v-1h-11.7v1Zm23.4 0h11.7v-1h-11.7v1Zm23.4 0h11.7v-1h-11.7v1Zm23.4 0h11.7v-1h-11.7v1Zm23.4 0h11.7v-1h-11.7v1Zm23.4 0h11.7v-1h-11.7v1Zm23.4 0h11.7v-1h-11.7v1Zm23.4 0h11.7v-1h-11.7v1Zm23.4 0h11.7v-1h-11.7v1Zm23.4 0h11.7v-1h-11.7v1Zm23.4 0h11.7v-1h-11.7v1Zm23.4 0h11.7v-1h-11.7v1Zm23.4 0h11.7v-1h-11.7v1Zm23.4 0h11.7v-1h-11.7v1Zm23.4 0h11.7v-1h-11.7v1Zm23.4 0H472v-1h-5.85v1Zm5.85 0a3.5 3.5 0 0 1 3.5 3.5h1A4.5 4.5 0 0 0 472-.5v1Zm3.5 3.5v7h1V4h-1Zm0 21v14h1V25h-1Zm0 28v7h1v-7h-1Zm0 7a3.5 3.5 0 0 1-3.5 3.5v1a4.5 4.5 0 0 0 4.5-4.5h-1Zm-3.5 3.5h-5.85v1H472v-1Zm-17.55 0h-11.7v1h11.7v-1Zm-23.4 0h-11.7v1h11.7v-1Zm-23.4 0h-11.7v1h11.7v-1Zm-23.4 0h-11.7v1h11.7v-1Zm-23.4 0h-11.7v1h11.7v-1Zm-23.4 0h-11.7v1h11.7v-1Zm-23.4 0h-11.7v1h11.7v-1Zm-23.4 0h-11.7v1h11.7v-1Zm-23.4 0h-11.7v1h11.7v-1Zm-23.4 0h-11.7v1h11.7v-1Zm-23.4 0h-11.7v1h11.7v-1Zm-23.4 0h-11.7v1h11.7v-1Zm-23.4 0h-11.7v1h11.7v-1Zm-23.4 0h-11.7v1h11.7v-1Zm-23.4 0h-11.7v1h11.7v-1Zm-23.4 0h-11.7v1h11.7v-1Zm-23.4 0h-11.7v1h11.7v-1Zm-23.4 0h-11.7v1h11.7v-1Zm-23.4 0h-11.7v1h11.7v-1Zm-23.4 0H4v1h5.85v-1ZM4 63a3 3 0 0 1-3-3h-2a5 5 0 0 0 5 5v-2Zm-3-3v-7h-2v7h2Zm0-21V25h-2v14h2Zm0-28V4h-2v7h2Zm0-7a3 3 0 0 1 3-3v-2a5 5 0 0 0-5 5h2Zm3-3h5.85v-2H4v2Zm17.55 0h11.7v-2h-11.7v2Zm23.4 0h11.7v-2h-11.7v2Zm23.4 0h11.7v-2h-11.7v2Zm23.4 0h11.7v-2h-11.7v2Zm23.4 0h11.7v-2h-11.7v2Zm23.4 0h11.7v-2h-11.7v2Zm23.4 0h11.7v-2h-11.7v2Zm23.4 0h11.7v-2h-11.7v2Zm23.4 0h11.7v-2h-11.7v2Zm23.4 0h11.7v-2h-11.7v2Zm23.4 0h11.7v-2h-11.7v2Zm23.4 0h11.7v-2h-11.7v2Zm23.4 0h11.7v-2h-11.7v2Zm23.4 0h11.7v-2h-11.7v2Zm23.4 0h11.7v-2h-11.7v2Zm23.4 0h11.7v-2h-11.7v2Zm23.4 0h11.7v-2h-11.7v2Zm23.4 0h11.7v-2h-11.7v2Zm23.4 0h11.7v-2h-11.7v2Zm23.4 0H472v-2h-5.85v2ZM472 1a3 3 0 0 1 3 3h2a5 5 0 0 0-5-5v2Zm3 3v7h2V4h-2Zm0 21v14h2V25h-2Zm0 28v7h2v-7h-2Zm0 7a3 3 0 0 1-3 3v2a5 5 0 0 0 5-5h-2Zm-3 3h-5.85v2H472v-2Zm-17.55 0h-11.7v2h11.7v-2Zm-23.4 0h-11.7v2h11.7v-2Zm-23.4 0h-11.7v2h11.7v-2Zm-23.4 0h-11.7v2h11.7v-2Zm-23.4 0h-11.7v2h11.7v-2Zm-23.4 0h-11.7v2h11.7v-2Zm-23.4 0h-11.7v2h11.7v-2Zm-23.4 0h-11.7v2h11.7v-2Zm-23.4 0h-11.7v2h11.7v-2Zm-23.4 0h-11.7v2h11.7v-2Zm-23.4 0h-11.7v2h11.7v-2Zm-23.4 0h-11.7v2h11.7v-2Zm-23.4 0h-11.7v2h11.7v-2Zm-23.4 0h-11.7v2h11.7v-2Zm-23.4 0h-11.7v2h11.7v-2Zm-23.4 0h-11.7v2h11.7v-2Zm-23.4 0h-11.7v2h11.7v-2Zm-23.4 0h-11.7v2h11.7v-2Zm-23.4 0h-11.7v2h11.7v-2Zm-23.4 0H4v2h5.85v-2Z" mask="url(#a)"/></symbol><symbol xmlns="http://www.w3.org/2000/svg" id="borderError" fill="none" viewBox="0 0 476 64"><path fill="currentColor" d="M4 63.5A3.5 3.5 0 0 1 .5 60h-1A4.5 4.5 0 0 0 4 64.5v-1ZM.5 60v-7h-1v7h1Zm0-21V25h-1v14h1Zm0-28V4h-1v7h1Zm0-7A3.5 3.5 0 0 1 4 .5v-1A4.5 4.5 0 0 0-.5 4h1ZM4 .5h5.85v-1H4v1Zm17.55 0h11.7v-1h-11.7v1Zm23.4 0h11.7v-1h-11.7v1Zm23.4 0h11.7v-1h-11.7v1Zm23.4 0h11.7v-1h-11.7v1Zm23.4 0h11.7v-1h-11.7v1Zm23.4 0h11.7v-1h-11.7v1Zm23.4 0h11.7v-1h-11.7v1Zm23.4 0h11.7v-1h-11.7v1Zm23.4 0h11.7v-1h-11.7v1Zm23.4 0h11.7v-1h-11.7v1Zm23.4 0h11.7v-1h-11.7v1Zm23.4 0h11.7v-1h-11.7v1Zm23.4 0h11.7v-1h-11.7v1Zm23.4 0h11.7v-1h-11.7v1Zm23.4 0h11.7v-1h-11.7v1Zm23.4 0h11.7v-1h-11.7v1Zm23.4 0h11.7v-1h-11.7v1Zm23.4 0h11.7v-1h-11.7v1Zm23.4 0h11.7v-1h-11.7v1Zm23.4 0H472v-1h-5.85v1Zm5.85 0a3.5 3.5 0 0 1 3.5 3.5h1A4.5 4.5 0 0 0 472-.5v1Zm3.5 3.5v7h1V4h-1Zm0 21v14h1V25h-1Zm0 28v7h1v-7h-1Zm0 7a3.5 3.5 0 0 1-3.5 3.5v1a4.5 4.5 0 0 0 4.5-4.5h-1Zm-3.5 3.5h-5.85v1H472v-1Zm-17.55 0h-11.7v1h11.7v-1Zm-23.4 0h-11.7v1h11.7v-1Zm-23.4 0h-11.7v1h11.7v-1Zm-23.4 0h-11.7v1h11.7v-1Zm-23.4 0h-11.7v1h11.7v-1Zm-23.4 0h-11.7v1h11.7v-1Zm-23.4 0h-11.7v1h11.7v-1Zm-23.4 0h-11.7v1h11.7v-1Zm-23.4 0h-11.7v1h11.7v-1Zm-23.4 0h-11.7v1h11.7v-1Zm-23.4 0h-11.7v1h11.7v-1Zm-23.4 0h-11.7v1h11.7v-1Zm-23.4 0h-11.7v1h11.7v-1Zm-23.4 0h-11.7v1h11.7v-1Zm-23.4 0h-11.7v1h11.7v-1Zm-23.4 0h-11.7v1h11.7v-1Zm-23.4 0h-11.7v1h11.7v-1Zm-23.4 0h-11.7v1h11.7v-1Zm-23.4 0h-11.7v1h11.7v-1Zm-23.4 0H4v1h5.85v-1ZM4 63a3 3 0 0 1-3-3h-2a5 5 0 0 0 5 5v-2Zm-3-3v-7h-2v7h2Zm0-21V25h-2v14h2Zm0-28V4h-2v7h2Zm0-7a3 3 0 0 1 3-3v-2a5 5 0 0 0-5 5h2Zm3-3h5.85v-2H4v2Zm17.55 0h11.7v-2h-11.7v2Zm23.4 0h11.7v-2h-11.7v2Zm23.4 0h11.7v-2h-11.7v2Zm23.4 0h11.7v-2h-11.7v2Zm23.4 0h11.7v-2h-11.7v2Zm23.4 0h11.7v-2h-11.7v2Zm23.4 0h11.7v-2h-11.7v2Zm23.4 0h11.7v-2h-11.7v2Zm23.4 0h11.7v-2h-11.7v2Zm23.4 0h11.7v-2h-11.7v2Zm23.4 0h11.7v-2h-11.7v2Zm23.4 0h11.7v-2h-11.7v2Zm23.4 0h11.7v-2h-11.7v2Zm23.4 0h11.7v-2h-11.7v2Zm23.4 0h11.7v-2h-11.7v2Zm23.4 0h11.7v-2h-11.7v2Zm23.4 0h11.7v-2h-11.7v2Zm23.4 0h11.7v-2h-11.7v2Zm23.4 0h11.7v-2h-11.7v2Zm23.4 0H472v-2h-5.85v2ZM472 1a3 3 0 0 1 3 3h2a5 5 0 0 0-5-5v2Zm3 3v7h2V4h-2Zm0 21v14h2V25h-2Zm0 28v7h2v-7h-2Zm0 7a3 3 0 0 1-3 3v2a5 5 0 0 0 5-5h-2Zm-3 3h-5.85v2H472v-2Zm-17.55 0h-11.7v2h11.7v-2Zm-23.4 0h-11.7v2h11.7v-2Zm-23.4 0h-11.7v2h11.7v-2Zm-23.4 0h-11.7v2h11.7v-2Zm-23.4 0h-11.7v2h11.7v-2Zm-23.4 0h-11.7v2h11.7v-2Zm-23.4 0h-11.7v2h11.7v-2Zm-23.4 0h-11.7v2h11.7v-2Zm-23.4 0h-11.7v2h11.7v-2Zm-23.4 0h-11.7v2h11.7v-2Zm-23.4 0h-11.7v2h11.7v-2Zm-23.4 0h-11.7v2h11.7v-2Zm-23.4 0h-11.7v2h11.7v-2Zm-23.4 0h-11.7v2h11.7v-2Zm-23.4 0h-11.7v2h11.7v-2Zm-23.4 0h-11.7v2h11.7v-2Zm-23.4 0h-11.7v2h11.7v-2Zm-23.4 0h-11.7v2h11.7v-2Zm-23.4 0h-11.7v2h11.7v-2Zm-23.4 0H4v2h5.85v-2Z" mask="url(#a)"/></symbol><symbol xmlns="http://www.w3.org/2000/svg" id="documentFilled" fill="none" viewBox="0 0 22 28"><path fill="currentColor" fill-rule="evenodd" d="M.333 3.038A2.374 2.374 0 0 1 2.71.667h11.053c.26 0 .51.102.698.288l6.909 6.85c.188.188.297.444.297.714v16.443a2.374 2.374 0 0 1-2.377 2.371H2.71a2.374 2.374 0 0 1-2.377-2.371V3.038ZM2.71 2.67H11c.103 0 .201.04.274.108a.36.36 0 0 1 .113.261V9.89a1 1 0 0 0 .995 1.002h6.908c.214 0 .387.165.387.369v13.702a.378.378 0 0 1-.387.369H2.71a.378.378 0 0 1-.387-.37V3.039c0-.204.173-.369.387-.369Zm10.909.595a.4.4 0 0 1 .423.086l4.955 4.913a.356.356 0 0 1 .077.4.388.388 0 0 1-.356.225h-4.955a.378.378 0 0 1-.386-.369V3.606a.37.37 0 0 1 .242-.342Z" clip-rule="evenodd"/><path fill="currentColor" fill-rule="evenodd" d="M11 2.67H2.71a.378.378 0 0 0-.387.368v21.924c0 .204.173.369.387.369h16.58a.378.378 0 0 0 .387-.37V11.26a.378.378 0 0 0-.387-.37h-6.908a.998.998 0 0 1-.995-1V3.037a.36.36 0 0 0-.113-.26.397.397 0 0 0-.274-.109Zm0 9.925c-.535 0-.995.3-.995.867v4.766a.37.37 0 0 1-.242.342.4.4 0 0 1-.424-.086l-.404-.401a.99.99 0 0 0-1.397 0 1.006 1.006 0 0 0 0 1.426l2.764 2.74a.99.99 0 0 0 1.396 0l2.763-2.74a1.006 1.006 0 0 0 0-1.426.99.99 0 0 0-1.396 0l-.404.4a.4.4 0 0 1-.424.087.37.37 0 0 1-.242-.342v-4.766c0-.567-.46-.867-.995-.867Z" clip-rule="evenodd"/></symbol><symbol xmlns="http://www.w3.org/2000/svg" id="documentOutline" fill="none" viewBox="0 0 22 28"><path fill="currentColor" d="M.333 3.333A2.667 2.667 0 0 1 3 .667h10.667c.353 0 .692.14.943.39l6.666 6.667c.25.25.39.589.39.943v16A2.667 2.667 0 0 1 19 27.333H3a2.667 2.667 0 0 1-2.667-2.666V3.333Zm18.115 5.334-4.781-4.781v4.78h4.78ZM11 3.333H3v21.334h16V11.333h-6.667A1.333 1.333 0 0 1 11 10V3.333Z"/><path fill="currentColor" d="M9.941 13.722c0-.597.49-1.055 1.059-1.055.57 0 1.059.458 1.059 1.055v3.735a.39.39 0 0 0 .258.361c.156.06.334.023.45-.091l.431-.423a1.06 1.06 0 0 1 1.486 0c.421.413.421 1.09 0 1.503l-2.94 2.89a1.06 1.06 0 0 1-1.487 0l-2.941-2.89a1.053 1.053 0 0 1 0-1.503 1.06 1.06 0 0 1 1.486 0l.43.423a.43.43 0 0 0 .451.091.39.39 0 0 0 .258-.36v-3.736Z"/></symbol><symbol xmlns="http://www.w3.org/2000/svg" id="upload" fill="none" viewBox="0 0 23 20"><path fill="currentColor" fill-rule="evenodd" d="M11.5 2.222c-3.237 0-5.83 2.602-5.83 5.772v.103c.01.517-.334.971-.83 1.098a2.83 2.83 0 0 0-2.14 2.732c0 1.033.564 1.947 1.424 2.44.528.304.713.982.412 1.516-.3.533-.972.72-1.5.416A5.04 5.04 0 0 1 .5 11.927a5.042 5.042 0 0 1 2.998-4.608C3.842 3.206 7.31 0 11.5 0a8.03 8.03 0 0 1 7.646 5.547 6.024 6.024 0 0 1 3.354 5.396c0 1.98-.96 3.733-2.427 4.827a1.093 1.093 0 0 1-1.538-.233 1.118 1.118 0 0 1 .232-1.554 3.783 3.783 0 0 0 1.533-3.04 3.808 3.808 0 0 0-2.458-3.549 1.108 1.108 0 0 1-.677-.77c-.618-2.516-2.911-4.402-5.665-4.402ZM7.581 13.206l3.15-3.112a1.092 1.092 0 0 1 1.538 0l3.15 3.112a1.12 1.12 0 0 1 .018 1.57 1.092 1.092 0 0 1-1.556.018L12.6 13.53v5.36c0 .614-.492 1.111-1.1 1.111-.607 0-1.1-.497-1.1-1.111v-5.36l-1.281 1.265a1.092 1.092 0 0 1-1.556-.017 1.12 1.12 0 0 1 .018-1.571Z" clip-rule="evenodd"/></symbol></svg>