<svg width="0" height="0"><symbol xmlns="http://www.w3.org/2000/svg" id="helpCircle" fill="none" viewBox="0 0 12 12"><path fill="currentColor" fill-rule="evenodd" d="M6 .667a5.333 5.333 0 1 0 0 10.666A5.333 5.333 0 0 0 6 .667ZM5.466 6c0-.295.24-.533.534-.533.357 0 .632-.063.804-.177.133-.09.262-.245.262-.623 0-.33-.112-.535-.251-.665a.952.952 0 0 0-.607-.236c-.51-.024-.939.26-1.015.722a.533.533 0 0 1-1.053-.176c.19-1.139 1.23-1.654 2.12-1.611a2.01 2.01 0 0 1 1.284.522c.37.345.59.84.59 1.444 0 .688-.27 1.2-.737 1.51-.265.177-.567.27-.863.317v.04a.533.533 0 1 1-1.067 0V6ZM5.2 8.4a.8.8 0 1 1 1.6 0 .8.8 0 0 1-1.6 0Z" clip-rule="evenodd"/></symbol><symbol xmlns="http://www.w3.org/2000/svg" id="warningCircle" fill="none" viewBox="0 0 20 20"><path fill="currentColor" d="M10 2a8 8 0 1 0 0 16 8 8 0 0 0 0-16ZM0 10C0 4.477 4.477 0 10 0s10 4.477 10 10-4.477 10-10 10S0 15.523 0 10Z"/><path fill="currentColor" d="M10 12a1 1 0 0 1-1-1V5a1 1 0 0 1 2 0v6a1 1 0 0 1-1 1Zm-1.5 2.5a1.5 1.5 0 1 1 3 0 1.5 1.5 0 0 1-3 0Z"/></symbol></svg>