<svg width="0" height="0"><symbol xmlns="http://www.w3.org/2000/svg" id="beeline" fill="none" viewBox="0 0 32 32"><rect width="32" height="32" fill="#fff" rx="16"/><g clip-path="url(#a)"><path fill="#FFC800" d="M15.998 30.663c8.098 0 14.662-6.566 14.662-14.665S24.096 1.333 15.998 1.333 1.336 7.9 1.336 15.998c0 8.1 6.564 14.665 14.662 14.665Z"/><path fill="#292929" d="M22.308 26.924c-4.98 2.874-10.38 3.39-13.83 1.668 4.417 2.632 10.087 2.86 14.853.108a14.67 14.67 0 0 0 7.335-12.92c-.234 3.849-3.379 8.27-8.358 11.144Zm-4.45-24.515c1.009 1.747-1.43 5.048-5.452 7.366-4.021 2.32-8.096 2.786-9.106 1.036a1.603 1.603 0 0 1-.11-.267c-.262-.814.05-1.867.804-2.977a14.575 14.575 0 0 1 4.672-4.27 14.59 14.59 0 0 1 6.035-1.91c1.337-.1 2.403.157 2.977.789.069.076.128.153.18.233Z"/><path fill="#292929" d="M24.091 4.301c1.763 3.053-1.794 8.405-7.943 11.956C10 19.808 3.585 20.212 1.825 17.16a3.72 3.72 0 0 1-.481-1.684 14.52 14.52 0 0 0 1.496 6.997l.02.037c.531.919 1.316 1.641 2.295 2.165 3.449 1.846 9.282 1.212 14.736-1.938 5.451-3.15 8.918-7.882 9.046-11.791.037-1.104-.194-2.143-.72-3.062A14.565 14.565 0 0 0 22.9 3.057a3.686 3.686 0 0 1 1.195 1.25L24.09 4.3Z"/><path fill="url(#b)" d="M16 30.663c8.099 0 14.663-6.566 14.663-14.665S24.1 1.333 16.001 1.333 1.339 7.9 1.339 15.998c0 8.1 6.564 14.665 14.662 14.665Z"/></g><defs><radialGradient id="b" cx="0" cy="0" r="1" gradientTransform="matrix(14.6619 0 0 14.6703 16 16)" gradientUnits="userSpaceOnUse"><stop offset=".5" stop-color="#fff" stop-opacity="0"/><stop offset="1" stop-color="#fff" stop-opacity=".35"/></radialGradient><clipPath id="a"><path fill="#fff" d="M1.334 1.333h29.333v29.333H1.334z"/></clipPath></defs></symbol><symbol xmlns="http://www.w3.org/2000/svg" id="megafon" fill="none" viewBox="0 0 32 32"><g clip-path="url(#a)"><rect width="32" height="32" fill="#fff" rx="16"/><g fill="#00B956" clip-path="url(#b)"><path d="M17.976 1.056v15.473c0 .723-.556 1.224-1.224 1.224h-1.837c-.111 0-.167.112-.167.167v12.97c.445 0 .89.111 1.392.111 8.293 0 15.027-6.735 15.027-15.028 0-7.625-5.733-14.026-13.19-14.916Zm-.334 23.154c-1.057 0-1.836-.89-1.836-1.837 0-1.058.89-1.837 1.836-1.837 1.058 0 1.837.89 1.837 1.837.111 1.002-.78 1.837-1.837 1.837Zm4.397 0c-1.057 0-1.836-.89-1.836-1.837 0-1.058.89-1.837 1.836-1.837 1.058 0 1.837.89 1.837 1.837 0 .946-.724 1.837-1.837 1.837Zm4.453 0c-1.058 0-1.837-.89-1.837-1.837 0-1.058.89-1.837 1.837-1.837 1.057 0 1.837.89 1.837 1.837 0 .946-.78 1.837-1.837 1.837Z"/><path d="M16.14 1C7.845 1 1.111 7.735 1.111 16.028c0 7.291 5.065 13.247 11.855 14.638V17.141c0-.612.556-1.113 1.113-1.224h1.838c.111 0 .167-.112.167-.168L16.139 1Zm-2.895 12.356c-1.057 0-1.837-.89-1.837-1.836 0-1.058.891-1.837 1.837-1.837 1.058 0 1.837.89 1.837 1.837 0 .946-.835 1.836-1.837 1.836Z"/></g></g></symbol><symbol xmlns="http://www.w3.org/2000/svg" id="mts" fill="none" viewBox="0 0 32 32"><g clip-path="url(#a)"><rect width="32" height="32" fill="#fff" rx="16"/><rect width="29.333" height="29.333" x="1.333" y="1.333" fill="#FF0032" rx="14.667"/><g mask="url(#b)"><path fill="#FF0032" d="M26.079 6H6v20.078h20.08V6Z"/><path fill="#fff" d="M19.774 7.573v.953h2.084v3.824h1.165V8.526h2.08v-.953h-5.329Zm-7.491 0-1.525 3.16-1.52-3.16H7.573v4.777h1.17V8.932l1.486 2.889h1.063l1.486-2.889v3.418h1.165V7.573h-1.66Zm11.655 15.928a.798.798 0 0 1-.23.466.991.991 0 0 1-.465.237c-.19.043-.474.068-.77.068-.31 0-.581-.038-.814-.118a.998.998 0 0 1-.525-.398c-.127-.187-.19-.458-.19-.81v-.487c0-.347.063-.618.19-.808.127-.187.3-.322.525-.398a2.46 2.46 0 0 1 .813-.12c.297 0 .58.026.77.069a.955.955 0 0 1 .467.237.798.798 0 0 1 .229.466h1.164a1.716 1.716 0 0 0-.398-1c-.212-.245-.508-.423-.877-.533-.355-.106-.826-.161-1.355-.161-.559 0-1.042.08-1.44.237-.402.16-.716.428-.932.796-.207.352-.313.826-.321 1.402v.055l.063.004-.063.004v.055c.008.576.114 1.05.321 1.402.216.369.53.636.932.796.398.157.881.238 1.44.238.53 0 1-.055 1.355-.161.369-.11.661-.288.877-.534.233-.267.369-.605.398-1h-1.165v-.004Z"/></g></g></symbol></svg>