<svg width="0" height="0"><symbol xmlns="http://www.w3.org/2000/svg" id="desktop" fill="currentColor" viewBox="0 0 24 24"><path d="M2 5a2 2 0 0 1 2-2h16a2 2 0 0 1 2 2v11a2 2 0 0 1-2 2h-7v2h3a1 1 0 1 1 0 2H8a1 1 0 1 1 0-2h3v-2H4a2 2 0 0 1-2-2V5Zm18 11V5H4v11h16Z"/></symbol><symbol xmlns="http://www.w3.org/2000/svg" id="mobile" fill="currentColor" viewBox="0 0 24 24"><path d="M6 5a2 2 0 0 1 2-2h8a2 2 0 0 1 2 2v14a2 2 0 0 1-2 2H8a2 2 0 0 1-2-2V5Zm10 0H8v14h8V5Z"/><path d="M13 17a1 1 0 1 1-2 0 1 1 0 0 1 2 0Z"/></symbol></svg>