<svg width="0" height="0"><symbol xmlns="http://www.w3.org/2000/svg" id="classmates" fill="none" viewBox="0 0 9 15"><path fill="currentColor" fill-rule="evenodd" d="M7.982 3.811c0 1.933-1.64 3.503-3.65 3.503S.682 5.744.682 3.811C.682 1.871 2.322.3 4.332.3s3.65 1.57 3.65 3.511Zm-1.858 0c0-.958-.805-1.732-1.792-1.732-.988 0-1.793.774-1.793 1.732 0 .95.806 1.724 1.793 1.724.987 0 1.792-.774 1.792-1.724ZM1.093 9.338C.176 8.77-.227 8.437.128 7.741c.208-.395.779-.729 1.535-.155 0 0 1.021.783 2.67.783 1.648 0 2.67-.783 2.67-.783.757-.57 1.325-.24 1.536.155.349.696-.053 1.028-.97 1.6-.77.471-1.832.658-2.532.728l1.528 1.465 1.208 1.159c.785.774-.493 1.984-1.286 1.236-.529-.516-1.3-1.258-2.107-2.035l-.04-.039-2.148 2.071C1.4 14.671.122 13.45.915 12.69l2.727-2.624c-.005.005-.099.095 0 0-.692-.07-1.77-.246-2.55-.728Z" clip-rule="evenodd"/></symbol><symbol xmlns="http://www.w3.org/2000/svg" id="telegram" fill="none" viewBox="0 0 15 13"><path fill="currentColor" d="M.882 5.418 13.337.616c.578-.209 1.082.141.895 1.015h.001l-2.12 9.99c-.157.708-.578.88-1.167.546l-3.23-2.38-1.557 1.5c-.172.173-.317.318-.651.318l.23-3.286 5.984-5.407c.26-.23-.058-.358-.402-.13L3.924 7.439.736 6.444c-.692-.22-.707-.692.146-1.026Z"/></symbol><symbol xmlns="http://www.w3.org/2000/svg" id="vk" fill="none" viewBox="0 0 16 9"><path fill="currentColor" fill-rule="evenodd" d="M14.28 6.942c.365.373 1.16 1 1.015 1.637-.133.585-1.006.371-1.854.405-.968.041-1.542.062-2.124-.405-.274-.222-.435-.485-.698-.779-.239-.266-.54-.742-.95-.723-.736.036-.505 1.062-.767 1.762-4.092.644-5.735-1.884-7.185-4.337C1.015 3.314 0 .762 0 .762l2.894-.01s.928 1.688 1.174 2.124c.21.37.44.664.677.994.2.275.514.811.86.768.56-.072.662-2.248.314-2.978-.138-.295-.47-.398-.814-.498C5.221.43 8.351.277 8.857.845c.735.825-.509 3.123.498 3.793 1.413-.74 2.62-3.841 2.62-3.841l3.388.021s-.53 1.676-1.085 2.42c-.324.435-1.398 1.404-1.356 2.123.034.57.908 1.124 1.357 1.581Z" clip-rule="evenodd"/></symbol></svg>