<svg width="0" height="0"><symbol xmlns="http://www.w3.org/2000/svg" id="badSmile" fill="none" viewBox="0 0 30 30"><path fill="currentColor" fill-rule="evenodd" d="M15 3.533C8.666 3.533 3.532 8.667 3.532 15s5.134 11.467 11.466 11.467c6.333 0 11.467-5.134 11.467-11.467S21.332 3.533 15 3.533ZM.865 15C.866 7.194 7.194.867 15 .867 22.805.867 29.133 7.194 29.133 15c0 7.806-6.328 14.133-14.133 14.133C7.193 29.133.865 22.806.865 15Zm8.96-3.84c0-.736.597-1.333 1.333-1.333h.128c.736 0 1.333.597 1.333 1.333v.102c0 .737-.597 1.334-1.333 1.334h-.128a1.333 1.333 0 0 1-1.333-1.334v-.102Zm7.68 0c0-.736.597-1.333 1.334-1.333h.113c.736 0 1.333.597 1.333 1.333v.102c0 .737-.597 1.334-1.333 1.334h-.113a1.333 1.333 0 0 1-1.334-1.334v-.102ZM15 19.538c-1.373 0-2.596.735-3.303 1.877a1.334 1.334 0 0 1-2.268-1.404c1.16-1.873 3.213-3.14 5.571-3.14 2.359 0 4.412 1.267 5.571 3.14a1.333 1.333 0 1 1-2.267 1.404c-.707-1.142-1.93-1.877-3.304-1.877Z" clip-rule="evenodd"/></symbol><symbol xmlns="http://www.w3.org/2000/svg" id="iconMark" fill="none" viewBox="0 0 24 20"><path fill="currentColor" d="M23.552 1.003c.55.49.6 1.332.111 1.883l-14.222 16a1.333 1.333 0 0 1-1.993 0l-7.111-8A1.333 1.333 0 0 1 2.33 9.114l6.114 6.879L21.67 1.114c.49-.55 1.332-.6 1.882-.11Z"/></symbol><symbol xmlns="http://www.w3.org/2000/svg" id="iconRetry" fill="none" viewBox="0 0 24 24"><path fill="currentColor" fill-rule="evenodd" d="M19.072 6.667h-1.577a1.333 1.333 0 0 0 0 2.666h5.172C23.403 9.333 24 8.736 24 8V2.667a1.333 1.333 0 0 0-2.667 0V5.25C19.24 2.094 15.705 0 11.677 0 5.189 0 0 5.412 0 12s5.19 12 11.677 12c5.203 0 9.577-3.488 11.099-8.262a1.333 1.333 0 0 0-2.541-.81c-1.194 3.744-4.594 6.405-8.558 6.405-4.938 0-9.01-4.14-9.01-9.333 0-5.194 4.072-9.333 9.01-9.333 3.048 0 5.759 1.57 7.395 4Z" clip-rule="evenodd"/></symbol><symbol xmlns="http://www.w3.org/2000/svg" id="iconUser" fill="none" viewBox="0 0 24 28"><path fill="currentColor" d="M12 3.333A5.333 5.333 0 1 0 12 14a5.333 5.333 0 0 0 0-10.667ZM4 8.667a8 8 0 1 1 16 0 8 8 0 0 1-16 0ZM6.667 22a4 4 0 0 0-4 4A1.333 1.333 0 0 1 0 26a6.667 6.667 0 0 1 6.667-6.667h10.666A6.667 6.667 0 0 1 24 26a1.333 1.333 0 0 1-2.667 0 4 4 0 0 0-4-4H6.667Z"/></symbol></svg>