<svg width="12" height="12" viewBox="0 0 12 12" fill="none" xmlns="http://www.w3.org/2000/svg">
<path fill-rule="evenodd" clip-rule="evenodd" d="M5.99984 0.666626C3.05432 0.666626 0.666504 3.05444 0.666504 5.99996C0.666504 8.94548 3.05432 11.3333 5.99984 11.3333C8.94536 11.3333 11.3332 8.94548 11.3332 5.99996C11.3332 3.05444 8.94536 0.666626 5.99984 0.666626ZM5.4665 5.99996C5.4665 5.70541 5.70529 5.46663 5.99984 5.46663C6.35742 5.46663 6.63234 5.40397 6.804 5.28953C6.93749 5.20054 7.0665 5.0446 7.0665 4.66663C7.0665 4.33715 6.95365 4.13182 6.81487 4.00214C6.66714 3.8641 6.45212 3.77766 6.2078 3.76602C5.69739 3.74172 5.26938 4.02684 5.19258 4.48764C5.14416 4.77818 4.86937 4.97446 4.57882 4.92604C4.28828 4.87761 4.092 4.60283 4.14043 4.31228C4.33029 3.17308 5.36895 2.6582 6.25854 2.70056C6.71422 2.72226 7.18253 2.88582 7.54313 3.22278C7.91269 3.5681 8.13317 4.06277 8.13317 4.66663C8.13317 5.35532 7.86219 5.86605 7.39568 6.17705C7.131 6.3535 6.82939 6.44791 6.53317 6.49429V6.53329C6.53317 6.82784 6.29439 7.06663 5.99984 7.06663C5.70529 7.06663 5.4665 6.82784 5.4665 6.53329V5.99996ZM5.19984 8.39996C5.19984 7.95813 5.55801 7.59996 5.99984 7.59996C6.44166 7.59996 6.79984 7.95813 6.79984 8.39996C6.79984 8.84179 6.44166 9.19996 5.99984 9.19996C5.55801 9.19996 5.19984 8.84179 5.19984 8.39996Z" fill="#94A4B7"/>
</svg>
