<svg width="476" height="64" viewBox="0 0 476 64" fill="none" xmlns="http://www.w3.org/2000/svg">
<mask id="path-1-inside-1_5006_1134" fill="white">
<path d="M0 4C0 1.79086 1.79086 0 4 0H472C474.209 0 476 1.79086 476 4V60C476 62.2091 474.209 64 472 64H4C1.79086 64 0 62.2091 0 60V4Z"/>
</mask>
<path d="M4 63.5C2.067 63.5 0.5 61.933 0.5 60H-0.5C-0.5 62.4853 1.51472 64.5 4 64.5V63.5ZM0.5 60V53H-0.5V60H0.5ZM0.5 39V25H-0.5V39H0.5ZM0.5 11V4H-0.5V11H0.5ZM0.5 4C0.5 2.067 2.067 0.5 4 0.5V-0.5C1.51472 -0.5 -0.5 1.51472 -0.5 4H0.5ZM4 0.5H9.85V-0.5H4V0.5ZM21.55 0.5H33.25V-0.5H21.55V0.5ZM44.95 0.5H56.65V-0.5H44.95V0.5ZM68.35 0.5H80.05V-0.5H68.35V0.5ZM91.75 0.5H103.45V-0.5H91.75V0.5ZM115.15 0.5H126.85V-0.5H115.15V0.5ZM138.55 0.5H150.25V-0.5H138.55V0.5ZM161.95 0.5H173.65V-0.5H161.95V0.5ZM185.35 0.5H197.05V-0.5H185.35V0.5ZM208.75 0.5H220.45V-0.5H208.75V0.5ZM232.15 0.5H243.85V-0.5H232.15V0.5ZM255.55 0.5H267.25V-0.5H255.55V0.5ZM278.95 0.5H290.65V-0.5H278.95V0.5ZM302.35 0.5H314.05V-0.5H302.35V0.5ZM325.75 0.5H337.45V-0.5H325.75V0.5ZM349.15 0.5H360.85V-0.5H349.15V0.5ZM372.55 0.5H384.25V-0.5H372.55V0.5ZM395.95 0.5H407.65V-0.5H395.95V0.5ZM419.35 0.5H431.05V-0.5H419.35V0.5ZM442.75 0.5H454.45V-0.5H442.75V0.5ZM466.15 0.5H472V-0.5H466.15V0.5ZM472 0.5C473.933 0.5 475.5 2.067 475.5 4H476.5C476.5 1.51472 474.485 -0.5 472 -0.5V0.5ZM475.5 4V11H476.5V4H475.5ZM475.5 25V39H476.5V25H475.5ZM475.5 53V60H476.5V53H475.5ZM475.5 60C475.5 61.933 473.933 63.5 472 63.5V64.5C474.485 64.5 476.5 62.4853 476.5 60H475.5ZM472 63.5H466.15V64.5H472V63.5ZM454.45 63.5H442.75V64.5H454.45V63.5ZM431.05 63.5H419.35V64.5H431.05V63.5ZM407.65 63.5H395.95V64.5H407.65V63.5ZM384.25 63.5H372.55V64.5H384.25V63.5ZM360.85 63.5H349.15V64.5H360.85V63.5ZM337.45 63.5H325.75V64.5H337.45V63.5ZM314.05 63.5H302.35V64.5H314.05V63.5ZM290.65 63.5H278.95V64.5H290.65V63.5ZM267.25 63.5H255.55V64.5H267.25V63.5ZM243.85 63.5H232.15V64.5H243.85V63.5ZM220.45 63.5H208.75V64.5H220.45V63.5ZM197.05 63.5H185.35V64.5H197.05V63.5ZM173.65 63.5H161.95V64.5H173.65V63.5ZM150.25 63.5H138.55V64.5H150.25V63.5ZM126.85 63.5H115.15V64.5H126.85V63.5ZM103.45 63.5H91.7499V64.5H103.45V63.5ZM80.0499 63.5H68.3499V64.5H80.0499V63.5ZM56.6499 63.5H44.9498V64.5H56.6499V63.5ZM33.2499 63.5H21.5498V64.5H33.2499V63.5ZM9.84983 63.5H4V64.5H9.84983V63.5ZM4 63C2.34315 63 1 61.6569 1 60H-1C-1 62.7614 1.23858 65 4 65V63ZM1 60V53H-1V60H1ZM1 39V25H-1V39H1ZM1 11V4H-1V11H1ZM1 4C1 2.34315 2.34315 1 4 1V-1C1.23858 -1 -1 1.23858 -1 4H1ZM4 1H9.85V-1H4V1ZM21.55 1H33.25V-1H21.55V1ZM44.95 1H56.65V-1H44.95V1ZM68.35 1H80.05V-1H68.35V1ZM91.75 1H103.45V-1H91.75V1ZM115.15 1H126.85V-1H115.15V1ZM138.55 1H150.25V-1H138.55V1ZM161.95 1H173.65V-1H161.95V1ZM185.35 1H197.05V-1H185.35V1ZM208.75 1H220.45V-1H208.75V1ZM232.15 1H243.85V-1H232.15V1ZM255.55 1H267.25V-1H255.55V1ZM278.95 1H290.65V-1H278.95V1ZM302.35 1H314.05V-1H302.35V1ZM325.75 1H337.45V-1H325.75V1ZM349.15 1H360.85V-1H349.15V1ZM372.55 1H384.25V-1H372.55V1ZM395.95 1H407.65V-1H395.95V1ZM419.35 1H431.05V-1H419.35V1ZM442.75 1H454.45V-1H442.75V1ZM466.15 1H472V-1H466.15V1ZM472 1C473.657 1 475 2.34315 475 4H477C477 1.23858 474.761 -1 472 -1V1ZM475 4V11H477V4H475ZM475 25V39H477V25H475ZM475 53V60H477V53H475ZM475 60C475 61.6569 473.657 63 472 63V65C474.761 65 477 62.7614 477 60H475ZM472 63H466.15V65H472V63ZM454.45 63H442.75V65H454.45V63ZM431.05 63H419.35V65H431.05V63ZM407.65 63H395.95V65H407.65V63ZM384.25 63H372.55V65H384.25V63ZM360.85 63H349.15V65H360.85V63ZM337.45 63H325.75V65H337.45V63ZM314.05 63H302.35V65H314.05V63ZM290.65 63H278.95V65H290.65V63ZM267.25 63H255.55V65H267.25V63ZM243.85 63H232.15V65H243.85V63ZM220.45 63H208.75V65H220.45V63ZM197.05 63H185.35V65H197.05V63ZM173.65 63H161.95V65H173.65V63ZM150.25 63H138.55V65H150.25V63ZM126.85 63H115.15V65H126.85V63ZM103.45 63H91.7499V65H103.45V63ZM80.0499 63H68.3499V65H80.0499V63ZM56.6499 63H44.9498V65H56.6499V63ZM33.2499 63H21.5498V65H33.2499V63ZM9.84983 63H4V65H9.84983V63Z" fill="#FC5055" mask="url(#path-1-inside-1_5006_1134)"/>
</svg>
