<svg width="24" height="24" viewBox="0 0 24 24" fill="none" xmlns="http://www.w3.org/2000/svg">
    <path fill-rule="evenodd" clip-rule="evenodd" d="M7.63996 4.32001C7.63997 2.70734 8.94729 1.40002 10.56 1.40002H17.8157C18.3687 1.40002 18.8854 1.63263 19.2545 2.02092C19.5283 2.30895 19.9499 2.73946 20.347 3.09478C20.714 3.42315 21.2654 3.98783 21.5761 4.31008C21.9292 4.67632 22.1202 5.16233 22.1202 5.66232L22.1199 15.8401C22.1199 17.4527 20.8126 18.76 19.1999 18.76H16.3599L16.3599 19.6801C16.3599 21.2927 15.0526 22.6 13.4399 22.6L4.79987 22.6C3.1872 22.6 1.87987 21.2926 1.87988 19.68L1.87996 8.16001C1.87997 6.54734 3.18729 5.24003 4.79996 5.24003H7.63996V4.32001ZM4.79996 7.24003C4.29186 7.24003 3.87996 7.65192 3.87996 8.16002L3.87988 19.68C3.87988 20.1881 4.29178 20.6 4.79988 20.6L13.4399 20.6C13.948 20.6 14.3599 20.1881 14.3599 19.68L14.36 17.773C14.3599 17.7687 14.3599 17.7644 14.3599 17.76C14.3599 17.7557 14.3599 17.7513 14.36 17.747L14.3601 11.5H12.5C12.4887 11.5 12.4766 11.5 12.4636 11.5001C12.2159 11.5007 11.6703 11.5021 11.1759 11.3019C10.8909 11.1865 10.5786 10.989 10.3427 10.6546C10.1038 10.3159 10 9.91726 10 9.5V7.24003H4.79996ZM9.63996 5.24003V4.32002C9.63996 3.81192 10.0519 3.40002 10.56 3.40002H16V5.66229C16 6.2563 16.2764 6.7492 16.6866 7.06879C17.0728 7.36977 17.5464 7.49826 17.9909 7.49998L20.1199 7.534V15.8401C20.1199 16.3481 19.708 16.76 19.1999 16.76H16.36L16.3602 10.5006C16.3602 10.5004 16.3602 10.5008 16.3602 10.5006C16.3602 10.5004 16.3602 10.4996 16.3602 10.4994L16.3602 9.50232C16.3602 9.00233 16.1692 8.51631 15.8161 8.15009C15.5054 7.82784 14.954 7.26315 14.587 6.93478C14.1898 6.57946 13.7683 6.14895 13.4945 5.86092C13.1254 5.47264 12.6087 5.24003 12.0557 5.24003H9.63996ZM12 7.24003V9.46905C12.0344 9.47636 12.0792 9.48344 12.136 9.4888C12.2479 9.49938 12.363 9.5 12.5 9.5H14.3394C14.0194 9.16872 13.5447 8.68593 13.2534 8.42527C12.7966 8.01659 12.3321 7.54102 12.046 7.24003H12ZM19.9748 5.53142C19.6653 5.21319 19.2688 4.81383 19.0134 4.58527C18.649 4.25925 18.2797 3.89067 18 3.6021V5.5L18.016 5.50013L19.9748 5.53142Z" fill="currentColor"/>
</svg>
