<svg width="23" height="20" viewBox="0 0 23 20" fill="none" xmlns="http://www.w3.org/2000/svg">
<path fill-rule="evenodd" clip-rule="evenodd" d="M11.5 2.22222C8.26256 2.22222 5.67 4.82384 5.67 7.99369C5.67 8.02835 5.67031 8.06292 5.67092 8.09741C5.68007 8.61353 5.33612 9.06804 4.84066 9.19454C3.59723 9.51201 2.7 10.6262 2.7 11.9266C2.7 12.9604 3.26426 13.8737 4.12383 14.3675C4.65191 14.6709 4.83651 15.3493 4.53616 15.8827C4.23581 16.4161 3.56424 16.6025 3.03617 16.2992C1.52845 15.433 0.5 13.8043 0.5 11.9266C0.5 9.863 1.73883 8.10346 3.49809 7.31947C3.8424 3.2056 7.30914 0 11.5 0C15.068 0 18.1054 2.31969 19.1465 5.54677C21.1265 6.53076 22.5 8.57056 22.5 10.9434C22.5 12.9238 21.5408 14.6758 20.0735 15.7704C19.5848 16.135 18.8961 16.0303 18.5352 15.5367C18.1742 15.0431 18.2778 14.3474 18.7665 13.9828C19.7038 13.2836 20.3 12.1797 20.3 10.9434C20.3 9.33813 19.2909 7.95001 17.8421 7.3944C17.5049 7.26508 17.2519 6.97699 17.1649 6.62339C16.5467 4.10844 14.2535 2.22222 11.5 2.22222ZM7.58097 13.2055L10.731 10.0944C11.1585 9.67222 11.8415 9.67222 12.269 10.0944L15.419 13.2055C15.8534 13.6346 15.8612 14.338 15.4365 14.7768C15.0118 15.2156 14.3153 15.2235 13.881 14.7945L12.6 13.5293V18.8889C12.6 19.5025 12.1075 20 11.5 20C10.8925 20 10.4 19.5025 10.4 18.8889V13.5293L9.11903 14.7945C8.68465 15.2235 7.98822 15.2156 7.56349 14.7768C7.13877 14.338 7.14659 13.6346 7.58097 13.2055Z" fill="currentColor"/>
</svg>
