<svg width="24" height="24" viewBox="0 0 24 24" fill="none" xmlns="http://www.w3.org/2000/svg">
    <path fill-rule="evenodd" clip-rule="evenodd" d="M3.20001 3.60003C3.20001 3.04774 3.64773 2.60003 4.20001 2.60003L10.486 2.60002C13.2474 2.60002 15.486 4.8386 15.486 7.60003L15.486 17.9858L19.0929 14.3789C19.4834 13.9884 20.1166 13.9884 20.5071 14.3789C20.8976 14.7694 20.8976 15.4026 20.5071 15.7931L15.1931 21.1071C14.8026 21.4977 14.1694 21.4977 13.7789 21.1071L8.46488 15.7931C8.07436 15.4026 8.07436 14.7694 8.46488 14.3789C8.85541 13.9884 9.48857 13.9884 9.8791 14.3789L13.486 17.9858L13.486 7.60003C13.486 5.94317 12.1429 4.60002 10.486 4.60002L4.20001 4.60003C3.64773 4.60003 3.20001 4.15231 3.20001 3.60003Z" fill="#292929"/>
</svg>
