<svg width="18" height="18" viewBox="0 0 18 18" fill="none" xmlns="http://www.w3.org/2000/svg">
    <path fill-rule="evenodd" clip-rule="evenodd" d="M3.69603 5H4.87879C5.43107 5 5.87879 5.44772 5.87879 6C5.87879 6.55228 5.43107 7 4.87879 7H1C0.447715 7 0 6.55228 0 6V2C0 1.44772 0.447715 1 1 1C1.55228 1 2 1.44772 2 2V3.93861C3.57023 1.57029 6.22151 0 9.24242 0C14.1079 0 18 4.05867 18 9C18 13.9413 14.1079 18 9.24242 18C5.33996 18 2.0594 15.3837 0.918378 11.8037C0.750665 11.2775 1.04128 10.7149 1.56748 10.5472C2.09369 10.3795 2.65622 10.6701 2.82393 11.1963C3.71887 14.0042 6.26931 16 9.24242 16C12.9457 16 16 12.8952 16 9C16 5.10478 12.9457 2 9.24242 2C6.95631 2 4.92313 3.17758 3.69603 5Z" fill="#292929"/>
</svg>
