<svg width="9" height="15" viewBox="0 0 9 15" fill="none" xmlns="http://www.w3.org/2000/svg">
<path fill-rule="evenodd" clip-rule="evenodd" d="M7.98166 3.81113C7.98166 5.74402 6.34108 7.31413 4.33194 7.31413C2.32223 7.31413 0.681641 5.74402 0.681641 3.81113C0.681641 1.87016 2.32223 0.300049 4.33194 0.300049C6.34108 0.300049 7.98166 1.87016 7.98166 3.81113ZM6.12445 3.81113C6.12445 2.85335 5.31918 2.0787 4.33194 2.0787C3.34412 2.0787 2.53885 2.85278 2.53943 3.81113C2.53943 4.76082 3.3447 5.53548 4.33194 5.53548C5.31918 5.53548 6.12445 4.76082 6.12445 3.81113ZM1.09294 9.33798C0.175598 8.76955 -0.226461 8.43681 0.127652 7.74072C0.336191 7.34559 0.906929 7.01228 1.6631 7.58648C1.6631 7.58648 2.68442 8.36923 4.3331 8.36923C5.98119 8.36923 7.00309 7.58648 7.00309 7.58648C7.75984 7.01517 8.32827 7.34559 8.53912 7.74072C8.88803 8.43681 8.48597 8.76897 7.56863 9.34029L7.56921 9.34087C6.79859 9.81225 5.73741 9.99883 5.0367 10.0693C4.9395 9.97566 5.78752 10.789 6.56463 11.5343C7.17766 12.1222 7.74656 12.6678 7.77255 12.6925C8.5576 13.4666 7.28037 14.6768 6.48665 13.9293C5.95817 13.4128 5.18709 12.6709 4.37961 11.8941L4.33945 11.8555L2.19225 13.9264C1.3991 14.671 0.121297 13.4504 0.915017 12.6896C3.28118 10.4137 3.63235 10.0758 3.64213 10.0664C3.63702 10.0713 3.54325 10.1615 3.6422 10.0664C3.64218 10.0664 3.64215 10.0664 3.64213 10.0664C2.95007 9.99593 1.87277 9.81974 1.09294 9.33798Z" fill="white"/>
</svg>
