<svg width="16" height="9" viewBox="0 0 16 9" fill="none" xmlns="http://www.w3.org/2000/svg">
<path fill-rule="evenodd" clip-rule="evenodd" d="M14.2791 6.94241C14.645 7.31545 15.4392 7.94144 15.2951 8.57874C15.1622 9.16375 14.2889 8.95038 13.4411 8.98429C12.4732 9.02527 11.8995 9.04646 11.3173 8.57874C11.0431 8.35689 10.882 8.09406 10.6192 7.80014C10.3804 7.53448 10.0794 7.05828 9.66963 7.07665C8.93342 7.11339 9.16375 8.13927 8.90233 8.83874C4.81009 9.4831 3.16669 6.95512 1.71688 4.50204C1.01458 3.31364 0 0.761643 0 0.761643L2.89396 0.751752C2.89396 0.751752 3.82235 2.44037 4.06822 2.87559C4.27736 3.24582 4.50769 3.53974 4.74508 3.87039C4.94433 4.14453 5.25944 4.6815 5.60423 4.63769C6.16522 4.56562 6.26696 2.3895 5.91934 1.66035C5.78086 1.36502 5.44879 1.26187 5.10542 1.16154C5.22129 0.429572 8.35123 0.276961 8.85711 0.845014C9.59191 1.67025 8.34841 3.9679 9.35451 4.63769C10.7676 3.89724 11.9743 0.79697 11.9743 0.79697L15.3629 0.818166C15.3629 0.818166 14.833 2.49407 14.2776 3.23734C13.9541 3.67256 12.8801 4.64193 12.9225 5.36118C12.9564 5.93065 13.8297 6.48457 14.2791 6.94241Z" fill="currentColor"/>
</svg>
